# xmcd
#
# Track frame offsets:
# 150
# 903
# 1634
# 5544
# 10209
# 14274
# 16547
# 18877
# 21430
# 23504
# 26217
# 32088
# 38065
# 40134
# 43105
# 48259
# 51533
# 55215
# 59792
# 63541
# 68349
# 73429
# 75801
# 78347
# 81947
# 84338
# 86915
# 89279
# 93617
# 96598
# 99815
# 102711
# 104785
# 110008
# 112291
# 115784
# 118328
# 121912
# 125359
# 129542
# 132905
# 136635
# 138998
# 143509
# 147342
# 151985
# 155952
# 159928
# 163175
# 168417
# 171970
# 176825
# 180209
# 185449
# 187468
# 190817
# 193873
# 197257
# 200832
# 203113
# 207317
# 209449
# 211836
# 215647
# 217993
# 221462
# 224191
# 227862
# 230025
# 233981
# 236214
# 238702
# 241226
# 245853
# 248274
# 252319
# 256081
# 260738
# 264651
# 270819
# 275204
# 279096
# 284013
# 287665
# 291123
# 294927
# 297405
# 301151
# 304655
# 308157
# 310732
# 316586
# 321803
# 324140
# 327622
# 330390
# 331960
#
# Disc length: 4442 seconds
#
# Revision: 0
# Processed by: cddbd v1.5.2PL0 Copyright (c) Steve Scherf et al.
# Submitted via: Audion 3.0.2 (http://www.panic.com/audion/)
#
DISCID=9c115861
DTITLE=Terry Goodkind - Naked Empire [CD10)
DYEAR=1900
DGENRE=
TTITLE0=Track01
TTITLE1=Track02
TTITLE2=Track03
TTITLE3=Track04
TTITLE4=Track05
TTITLE5=Track06
TTITLE6=Track07
TTITLE7=Track08
TTITLE8=Track09
TTITLE9=Track10
TTITLE10=Track11
TTITLE11=Track12
TTITLE12=Track13
TTITLE13=Track14
TTITLE14=Track15
TTITLE15=Track16
TTITLE16=Track17
TTITLE17=Track18
TTITLE18=Track19
TTITLE19=Track20
TTITLE20=Track21
TTITLE21=Track22
TTITLE22=Track23
TTITLE23=Track24
TTITLE24=Track25
TTITLE25=Track26
TTITLE26=Track27
TTITLE27=Track28
TTITLE28=Track29
TTITLE29=Track30
TTITLE30=Track31
TTITLE31=Track32
TTITLE32=Track33
TTITLE33=Track34
TTITLE34=Track35
TTITLE35=Track36
TTITLE36=Track37
TTITLE37=Track38
TTITLE38=Track39
TTITLE39=Track40
TTITLE40=Track41
TTITLE41=Track42
TTITLE42=Track43
TTITLE43=Track44
TTITLE44=Track45
TTITLE45=Track46
TTITLE46=Track47
TTITLE47=Track48
TTITLE48=Track49
TTITLE49=Track50
TTITLE50=Track51
TTITLE51=Track52
TTITLE52=Track53
TTITLE53=Track54
TTITLE54=Track55
TTITLE55=Track56
TTITLE56=Track57
TTITLE57=Track58
TTITLE58=Track59
TTITLE59=Track60
TTITLE60=Track61
TTITLE61=Track62
TTITLE62=Track63
TTITLE63=Track64
TTITLE64=Track65
TTITLE65=Track66
TTITLE66=Track67
TTITLE67=Track68
TTITLE68=Track69
TTITLE69=Track70
TTITLE70=Track71
TTITLE71=Track72
TTITLE72=Track73
TTITLE73=Track74
TTITLE74=Track75
TTITLE75=Track76
TTITLE76=Track77
TTITLE77=Track78
TTITLE78=Track79
TTITLE79=Track80
TTITLE80=Track81
TTITLE81=Track82
TTITLE82=Track83
TTITLE83=Track84
TTITLE84=Track85
TTITLE85=Track86
TTITLE86=Track87
TTITLE87=Track88
TTITLE88=Track89
TTITLE89=Track90
TTITLE90=Track91
TTITLE91=Track92
TTITLE92=Track93
TTITLE93=Track94
TTITLE94=Track95
TTITLE95=Track96
TTITLE96=Track97
EXTD=
EXTT0=
EXTT1=
EXTT2=
EXTT3=
EXTT4=
EXTT5=
EXTT6=
EXTT7=
EXTT8=
EXTT9=
EXTT10=
EXTT11=
EXTT12=
EXTT13=
EXTT14=
EXTT15=
EXTT16=
EXTT17=
EXTT18=
EXTT19=
EXTT20=
EXTT21=
EXTT22=
EXTT23=
EXTT24=
EXTT25=
EXTT26=
EXTT27=
EXTT28=
EXTT29=
EXTT30=
EXTT31=
EXTT32=
EXTT33=
EXTT34=
EXTT35=
EXTT36=
EXTT37=
EXTT38=
EXTT39=
EXTT40=
EXTT41=
EXTT42=
EXTT43=
EXTT44=
EXTT45=
EXTT46=
EXTT47=
EXTT48=
EXTT49=
EXTT50=
EXTT51=
EXTT52=
EXTT53=
EXTT54=
EXTT55=
EXTT56=
EXTT57=
EXTT58=
EXTT59=
EXTT60=
EXTT61=
EXTT62=
EXTT63=
EXTT64=
EXTT65=
EXTT66=
EXTT67=
EXTT68=
EXTT69=
EXTT70=
EXTT71=
EXTT72=
EXTT73=
EXTT74=
EXTT75=
EXTT76=
EXTT77=
EXTT78=
EXTT79=
EXTT80=
EXTT81=
EXTT82=
EXTT83=
EXTT84=
EXTT85=
EXTT86=
EXTT87=
EXTT88=
EXTT89=
EXTT90=
EXTT91=
EXTT92=
EXTT93=
EXTT94=
EXTT95=
EXTT96=
PLAYORDER=
